# xmcd
#
# Track frame offsets:
#	150
#	14852
#	29042
#	39809
#	54471
#	67541
#	79340
#	96119
#	117838
#	130846
#	141965
#
# Disc length: 2071 seconds
# Revision: 0
# Processed by: cddbd v1.5.2PL0 Copyright (c) Steve Scherf et al.
# Submitted via: dBpowerAMP V12.0
#
DISCID=9108150b
DTITLE=Marli Humphrey - At Last
DYEAR=2016
DGENRE=Country
TTITLE0=Desperado
TTITLE1=Little White Church
TTITLE2=Leaving On Your Mind
TTITLE3=Good Hearted Woman
TTITLE4=Stand By Me
TTITLE5=Only Mama That'll Walk The Line
TTITLE6=Pride And Joy
TTITLE7=Blues Man
TTITLE8=Swingin'
TTITLE9=Cheatin' Heart
TTITLE10=At Last
EXTD=
EXTT0=
EXTT1=
EXTT2=
EXTT3=
EXTT4=
EXTT5=
EXTT6=
EXTT7=
EXTT8=
EXTT9=
EXTT10=
PLAYORDER=
